<svg width="146" height="24" viewBox="0 0 146 24" fill="none" xmlns="http://www.w3.org/2000/svg">
<path d="M134.175 14L138 17.7116L141.825 14L143 15.1482L138 20L133 15.1482L134.175 14Z" fill="black"/>
<path d="M141.825 10L138 6.28841L134.175 10L133 8.85175L138 4L143 8.85175L141.825 10Z" fill="black"/>
<path d="M45.4473 11.9072C45.4473 13.557 44.9893 14.8193 44.0732 15.6943C43.1572 16.5648 41.8379 17 40.1152 17H37.3193V7.00586H40.4092C41.9997 7.00586 43.237 7.43424 44.1211 8.29102C45.0052 9.14779 45.4473 10.3532 45.4473 11.9072ZM43.7246 11.9619C43.7246 9.56934 42.6058 8.37305 40.3682 8.37305H38.9531V15.626H40.1152C42.5215 15.626 43.7246 14.4046 43.7246 11.9619ZM52.1602 17L51.8389 15.9473H51.7842C51.4196 16.4076 51.0527 16.722 50.6836 16.8906C50.3145 17.0547 49.8405 17.1367 49.2617 17.1367C48.5189 17.1367 47.9378 16.9362 47.5186 16.5352C47.1038 16.1341 46.8965 15.5667 46.8965 14.833C46.8965 14.0537 47.1859 13.4658 47.7646 13.0693C48.3434 12.6729 49.2253 12.4564 50.4102 12.4199L51.7158 12.3789V11.9756C51.7158 11.4925 51.6019 11.1325 51.374 10.8955C51.1507 10.654 50.8021 10.5332 50.3281 10.5332C49.9408 10.5332 49.5693 10.5902 49.2139 10.7041C48.8584 10.818 48.5166 10.9525 48.1885 11.1074L47.6689 9.95898C48.0791 9.74479 48.528 9.58301 49.0156 9.47363C49.5033 9.3597 49.9635 9.30273 50.3965 9.30273C51.3581 9.30273 52.0827 9.51237 52.5703 9.93164C53.0625 10.3509 53.3086 11.0094 53.3086 11.9072V17H52.1602ZM49.7676 15.9062C50.3509 15.9062 50.818 15.7445 51.1689 15.4209C51.5244 15.0928 51.7021 14.6348 51.7021 14.0469V13.3906L50.7314 13.4316C49.9749 13.459 49.4235 13.5866 49.0771 13.8145C48.7354 14.0378 48.5645 14.3818 48.5645 14.8467C48.5645 15.1839 48.6647 15.446 48.8652 15.6328C49.0658 15.8151 49.3665 15.9062 49.7676 15.9062ZM68.2314 11.9893C68.2314 13.6162 67.8236 14.8809 67.0078 15.7832C66.1966 16.6855 65.0459 17.1367 63.5557 17.1367C62.0472 17.1367 60.8874 16.6901 60.0762 15.7969C59.2695 14.8991 58.8662 13.6253 58.8662 11.9756C58.8662 10.3258 59.2718 9.05892 60.083 8.1748C60.8988 7.29069 62.0609 6.84863 63.5693 6.84863C65.055 6.84863 66.2035 7.29753 67.0146 8.19531C67.8258 9.0931 68.2314 10.3577 68.2314 11.9893ZM60.6025 11.9893C60.6025 13.2197 60.8509 14.154 61.3477 14.792C61.8444 15.4255 62.5804 15.7422 63.5557 15.7422C64.5264 15.7422 65.2578 15.4277 65.75 14.7988C66.2467 14.1699 66.4951 13.2334 66.4951 11.9893C66.4951 10.7633 66.249 9.83366 65.7568 9.2002C65.2692 8.56673 64.54 8.25 63.5693 8.25C62.5895 8.25 61.849 8.56673 61.3477 9.2002C60.8509 9.83366 60.6025 10.7633 60.6025 11.9893ZM73.0234 15.8379C73.4154 15.8379 73.8073 15.7764 74.1992 15.6533V16.8633C74.0215 16.9408 73.7913 17.0046 73.5088 17.0547C73.2308 17.1094 72.9414 17.1367 72.6406 17.1367C71.1185 17.1367 70.3574 16.3346 70.3574 14.7305V10.6562H69.3252V9.94531L70.4326 9.35742L70.9795 7.75781H71.9707V9.43945H74.124V10.6562H71.9707V14.7031C71.9707 15.0905 72.0664 15.3776 72.2578 15.5645C72.4538 15.7467 72.709 15.8379 73.0234 15.8379ZM78.5332 15.8379C78.9251 15.8379 79.3171 15.7764 79.709 15.6533V16.8633C79.5312 16.9408 79.3011 17.0046 79.0186 17.0547C78.7406 17.1094 78.4512 17.1367 78.1504 17.1367C76.6283 17.1367 75.8672 16.3346 75.8672 14.7305V10.6562H74.835V9.94531L75.9424 9.35742L76.4893 7.75781H77.4805V9.43945H79.6338V10.6562H77.4805V14.7031C77.4805 15.0905 77.5762 15.3776 77.7676 15.5645C77.9635 15.7467 78.2188 15.8379 78.5332 15.8379ZM87.9326 13.2061C87.9326 14.4411 87.6159 15.4049 86.9824 16.0977C86.349 16.7904 85.4671 17.1367 84.3369 17.1367C83.6305 17.1367 83.0062 16.9772 82.4639 16.6582C81.9215 16.3392 81.5046 15.8812 81.2129 15.2842C80.9212 14.6872 80.7754 13.9945 80.7754 13.2061C80.7754 11.9801 81.0898 11.0231 81.7188 10.335C82.3477 9.64681 83.234 9.30273 84.3779 9.30273C85.4717 9.30273 86.3376 9.65592 86.9756 10.3623C87.6136 11.0641 87.9326 12.012 87.9326 13.2061ZM82.4297 13.2061C82.4297 14.9515 83.0745 15.8242 84.3643 15.8242C85.6403 15.8242 86.2783 14.9515 86.2783 13.2061C86.2783 11.4788 85.6357 10.6152 84.3506 10.6152C83.6761 10.6152 83.1862 10.8385 82.8809 11.2852C82.5801 11.7318 82.4297 12.3721 82.4297 13.2061Z" fill="#182135"/>
<path fill-rule="evenodd" clip-rule="evenodd" d="M1.33333 2H22.6667V4.625H1.33333V2ZM24 15.125V12.5L22.6667 5.9375H1.33333L0 12.5V15.125H1.33333V23H14.6667V15.125H20V23H22.6667V15.125H24ZM12 20.375H4V15.125H12V20.375Z" fill="#503E9D"/>
</svg>
