<svg width="145" height="32" viewBox="0 0 145 32" fill="none" xmlns="http://www.w3.org/2000/svg">
<path d="M55.3418 16.1973H56.2383C57.0762 16.1973 57.7031 16.0332 58.1191 15.7051C58.5352 15.3711 58.7432 14.8877 58.7432 14.2549C58.7432 13.6162 58.5674 13.1445 58.2158 12.8398C57.8701 12.5352 57.3252 12.3828 56.5811 12.3828H55.3418V16.1973ZM61.4941 14.1582C61.4941 15.541 61.0605 16.5986 60.1934 17.3311C59.332 18.0635 58.1045 18.4297 56.5107 18.4297H55.3418V23H52.6172V10.1504H56.7217C58.2803 10.1504 59.4639 10.4873 60.2725 11.1611C61.0869 11.8291 61.4941 12.8281 61.4941 14.1582ZM65.8447 18.0693C65.8447 19.042 66.0029 19.7773 66.3193 20.2754C66.6416 20.7734 67.1631 21.0225 67.8838 21.0225C68.5986 21.0225 69.1113 20.7764 69.4219 20.2842C69.7383 19.7861 69.8965 19.0479 69.8965 18.0693C69.8965 17.0967 69.7383 16.3672 69.4219 15.8809C69.1055 15.3945 68.5869 15.1514 67.8662 15.1514C67.1514 15.1514 66.6357 15.3945 66.3193 15.8809C66.0029 16.3613 65.8447 17.0908 65.8447 18.0693ZM72.6387 18.0693C72.6387 19.6689 72.2168 20.9199 71.373 21.8223C70.5293 22.7246 69.3545 23.1758 67.8486 23.1758C66.9053 23.1758 66.0732 22.9707 65.3525 22.5605C64.6318 22.1445 64.0781 21.5498 63.6914 20.7764C63.3047 20.0029 63.1113 19.1006 63.1113 18.0693C63.1113 16.4639 63.5303 15.2158 64.3682 14.3252C65.2061 13.4346 66.3838 12.9893 67.9014 12.9893C68.8447 12.9893 69.6768 13.1943 70.3975 13.6045C71.1182 14.0146 71.6719 14.6035 72.0586 15.3711C72.4453 16.1387 72.6387 17.0381 72.6387 18.0693ZM83.6514 23H80.9707V17.2607C80.9707 16.5518 80.8506 16.0215 80.6104 15.6699C80.376 15.3125 80.0039 15.1338 79.4941 15.1338C78.8086 15.1338 78.3105 15.3857 78 15.8896C77.6895 16.3936 77.5342 17.2227 77.5342 18.377V23H74.8535V13.1738H76.9014L77.2617 14.4307H77.4111C77.6748 13.9795 78.0557 13.6279 78.5537 13.376C79.0518 13.1182 79.623 12.9893 80.2676 12.9893C81.7383 12.9893 82.7344 13.4697 83.2559 14.4307H83.4932C83.7568 13.9736 84.1436 13.6191 84.6533 13.3672C85.1689 13.1152 85.749 12.9893 86.3936 12.9893C87.5068 12.9893 88.3477 13.2764 88.916 13.8506C89.4902 14.4189 89.7773 15.333 89.7773 16.5928V23H87.0879V17.2607C87.0879 16.5518 86.9678 16.0215 86.7275 15.6699C86.4932 15.3125 86.1211 15.1338 85.6113 15.1338C84.9551 15.1338 84.4629 15.3682 84.1348 15.8369C83.8125 16.3057 83.6514 17.0498 83.6514 18.0693V23ZM94.6729 18.0693C94.6729 19.042 94.8311 19.7773 95.1475 20.2754C95.4697 20.7734 95.9912 21.0225 96.7119 21.0225C97.4268 21.0225 97.9395 20.7764 98.25 20.2842C98.5664 19.7861 98.7246 19.0479 98.7246 18.0693C98.7246 17.0967 98.5664 16.3672 98.25 15.8809C97.9336 15.3945 97.415 15.1514 96.6943 15.1514C95.9795 15.1514 95.4639 15.3945 95.1475 15.8809C94.8311 16.3613 94.6729 17.0908 94.6729 18.0693ZM101.467 18.0693C101.467 19.6689 101.045 20.9199 100.201 21.8223C99.3574 22.7246 98.1826 23.1758 96.6768 23.1758C95.7334 23.1758 94.9014 22.9707 94.1807 22.5605C93.46 22.1445 92.9062 21.5498 92.5195 20.7764C92.1328 20.0029 91.9395 19.1006 91.9395 18.0693C91.9395 16.4639 92.3584 15.2158 93.1963 14.3252C94.0342 13.4346 95.2119 12.9893 96.7295 12.9893C97.6729 12.9893 98.5049 13.1943 99.2256 13.6045C99.9463 14.0146 100.5 14.6035 100.887 15.3711C101.273 16.1387 101.467 17.0381 101.467 18.0693ZM120.451 23H117.138L116.127 22.0068C115.008 22.7861 113.742 23.1758 112.33 23.1758C110.9 23.1758 109.767 22.8477 108.929 22.1914C108.091 21.5352 107.672 20.6475 107.672 19.5283C107.672 18.7256 107.848 18.043 108.199 17.4805C108.557 16.9121 109.166 16.3818 110.027 15.8896C109.588 15.3857 109.269 14.9053 109.069 14.4482C108.87 13.9854 108.771 13.4814 108.771 12.9365C108.771 12.0459 109.11 11.3281 109.79 10.7832C110.476 10.2383 111.39 9.96582 112.532 9.96582C113.622 9.96582 114.492 10.2207 115.143 10.7305C115.799 11.2344 116.127 11.9111 116.127 12.7607C116.127 13.458 115.925 14.0967 115.521 14.6768C115.116 15.251 114.463 15.7988 113.561 16.3203L116.057 18.7549C116.473 18.0693 116.833 17.1875 117.138 16.1094H119.933C119.722 16.9004 119.432 17.6738 119.062 18.4297C118.693 19.1797 118.274 19.8447 117.806 20.4248L120.451 23ZM110.493 19.2734C110.493 19.7773 110.681 20.1787 111.056 20.4775C111.437 20.7764 111.923 20.9258 112.515 20.9258C113.253 20.9258 113.918 20.7471 114.51 20.3896L111.592 17.4893C111.252 17.7471 110.982 18.0166 110.783 18.2979C110.59 18.5791 110.493 18.9043 110.493 19.2734ZM113.648 13.042C113.648 12.7314 113.543 12.4883 113.332 12.3125C113.121 12.1309 112.849 12.04 112.515 12.04C112.122 12.04 111.812 12.1338 111.583 12.3213C111.36 12.5088 111.249 12.7754 111.249 13.1211C111.249 13.6367 111.527 14.2051 112.084 14.8262C112.588 14.5449 112.975 14.2695 113.244 14C113.514 13.7246 113.648 13.4053 113.648 13.042ZM130.523 23.1758C127.465 23.1758 125.936 21.4971 125.936 18.1396C125.936 16.4697 126.352 15.1953 127.184 14.3164C128.016 13.4316 129.208 12.9893 130.761 12.9893C131.897 12.9893 132.917 13.2119 133.819 13.6572L133.028 15.7314C132.606 15.5615 132.214 15.4238 131.851 15.3184C131.487 15.207 131.124 15.1514 130.761 15.1514C129.366 15.1514 128.669 16.1416 128.669 18.1221C128.669 20.0439 129.366 21.0049 130.761 21.0049C131.276 21.0049 131.754 20.9375 132.193 20.8027C132.633 20.6621 133.072 20.4453 133.512 20.1523V22.4463C133.078 22.7217 132.639 22.9121 132.193 23.0176C131.754 23.123 131.197 23.1758 130.523 23.1758ZM137.933 18.0693C137.933 19.042 138.091 19.7773 138.407 20.2754C138.729 20.7734 139.251 21.0225 139.972 21.0225C140.687 21.0225 141.199 20.7764 141.51 20.2842C141.826 19.7861 141.984 19.0479 141.984 18.0693C141.984 17.0967 141.826 16.3672 141.51 15.8809C141.193 15.3945 140.675 15.1514 139.954 15.1514C139.239 15.1514 138.724 15.3945 138.407 15.8809C138.091 16.3613 137.933 17.0908 137.933 18.0693ZM144.727 18.0693C144.727 19.6689 144.305 20.9199 143.461 21.8223C142.617 22.7246 141.442 23.1758 139.937 23.1758C138.993 23.1758 138.161 22.9707 137.44 22.5605C136.72 22.1445 136.166 21.5498 135.779 20.7764C135.393 20.0029 135.199 19.1006 135.199 18.0693C135.199 16.4639 135.618 15.2158 136.456 14.3252C137.294 13.4346 138.472 12.9893 139.989 12.9893C140.933 12.9893 141.765 13.1943 142.485 13.6045C143.206 14.0146 143.76 14.6035 144.146 15.3711C144.533 16.1387 144.727 17.0381 144.727 18.0693Z" fill="#2D2D2D"/>
<path d="M5.13148 26.9303C3.91245 26.6083 2.99026 25.6453 2.72701 24.4194C2.60596 23.8556 2.60512 23.5671 2.72295 23.0211C2.8527 22.4198 3.11429 21.9314 3.56568 21.4477C4.24512 20.7194 5.34497 20.3158 6.364 20.4205L6.78274 20.4636L6.10919 19.1834C5.73873 18.4793 5.24754 17.5522 5.01765 17.1231C4.78776 16.694 4.61912 16.3239 4.6429 16.3005C4.66669 16.2772 5.87848 16.2581 7.33578 16.2581H9.98541V16.8387V17.4194H8.23906C7.27857 17.4194 6.50256 17.4428 6.51461 17.4715C6.63393 17.7555 9.68026 23.418 9.70217 23.3964C9.71829 23.3806 9.64819 23.2124 9.5464 23.0225C9.36459 22.6835 9.36138 22.6586 9.36466 21.6129C9.36785 20.594 9.37691 20.5221 9.57616 19.935C10.0335 18.5874 10.9216 17.5659 12.2518 16.8579C12.4686 16.7425 12.6041 16.6474 12.5529 16.6466C12.5017 16.6458 12.4753 16.63 12.4943 16.6114C12.5132 16.5928 12.5795 16.5968 12.6416 16.6202C12.7293 16.6532 12.6801 16.7028 12.4219 16.8415C11.6535 17.2541 10.8645 17.9806 10.372 18.729C10.0867 19.1625 9.77747 19.9135 9.64946 20.4839C9.52301 21.0473 9.54068 22.4501 9.68056 22.9539C9.74249 23.177 9.77589 23.3869 9.75478 23.4205C9.73368 23.454 10.1188 24.2513 10.6107 25.1923L11.505 26.9032L10.8273 26.9021L10.1496 26.9011L9.65694 25.967C9.38596 25.4532 9.14823 25.0328 9.12866 25.0326C9.10909 25.0324 9.01146 25.1957 8.9117 25.3954C8.687 25.8454 8.11808 26.4403 7.69756 26.6651C7.02898 27.0225 5.91596 27.1375 5.13148 26.9303ZM7.08227 25.6967C8.62409 24.9308 8.64121 22.5167 7.11027 21.7496C6.50442 21.4461 5.58591 21.4634 4.97525 21.7898C3.55728 22.5477 3.51886 24.7782 4.90925 25.6221C5.50453 25.9834 6.44053 26.0155 7.08227 25.6967ZM5.75952 25.5794C6.09017 25.3847 6.45034 24.9183 6.59474 24.4977C6.74833 24.0504 6.73308 23.3155 6.56081 22.8634C6.42595 22.5094 5.93882 21.9417 5.6239 21.7716C5.51953 21.7152 5.53652 21.7056 5.72996 21.7119C6.17677 21.7265 6.74543 22.1634 7.02963 22.7105C7.2934 23.2183 7.31381 24.0963 7.07489 24.6574C6.9419 24.9697 6.47458 25.4629 6.16434 25.6183C5.87059 25.7655 5.77208 25.7787 5.94913 25.6472C6.11244 25.5259 5.99598 25.5245 5.78103 25.6452C5.49336 25.8067 5.474 25.7474 5.75952 25.5794ZM6.46405 25.2196C7.14158 24.4795 7.21115 23.2417 6.62245 22.4014C6.4339 22.1322 5.96311 21.7419 5.82701 21.7419C5.79088 21.7419 5.87767 21.8247 6.01988 21.9259C6.67166 22.3896 6.92637 22.8901 6.92768 23.7097C6.92846 24.2027 6.9025 24.3453 6.75568 24.6547C6.66057 24.8551 6.4615 25.1382 6.31328 25.2837C6.16507 25.4293 6.07063 25.5484 6.10341 25.5484C6.13619 25.5484 6.29848 25.4004 6.46405 25.2196ZM6.45667 25.5246C6.7886 25.2773 7.12983 24.798 7.2363 24.4295C7.35077 24.0334 7.33538 23.3091 7.20456 22.9355C7.07209 22.5572 6.76141 22.1368 6.43797 21.8983C6.25551 21.7637 6.24026 21.7381 6.36408 21.7745C6.45118 21.8 6.50414 21.7949 6.48395 21.7628C6.41643 21.6555 6.86365 21.72 7.13397 21.8565C8.03643 22.3124 8.43598 23.6198 7.99185 24.6637C7.86134 24.9704 7.3919 25.4641 7.08405 25.6183C6.7903 25.7655 6.69179 25.7787 6.86884 25.6472C7.0218 25.5336 6.94596 25.5186 6.74711 25.6231C6.66897 25.6641 6.50935 25.7052 6.3924 25.7143L6.17975 25.7309L6.45667 25.5246ZM6.73921 25.545C7.02144 25.3737 7.38 24.8893 7.51445 24.4977C7.66819 24.05 7.6527 23.3163 7.47981 22.8573C7.33574 22.4748 6.75334 21.8065 6.5641 21.8065C6.51408 21.8065 6.5761 21.8754 6.70191 21.9596C6.82773 22.0438 7.0304 22.2495 7.15229 22.4167C7.85065 23.3747 7.63424 24.8124 6.69064 25.4836C6.38046 25.7043 6.4117 25.7438 6.73921 25.545ZM7.35516 25.2533C7.72119 24.8633 7.88639 24.4775 7.93003 23.9108C7.97316 23.3508 7.83803 22.8237 7.54354 22.4034C7.35386 22.1326 6.88322 21.7419 6.74672 21.7419C6.71059 21.7419 6.79738 21.8247 6.93959 21.9259C7.59137 22.3896 7.84608 22.8901 7.84738 23.7097C7.84817 24.2027 7.82221 24.3453 7.67539 24.6547C7.58028 24.8551 7.3812 25.1382 7.23299 25.2837C7.08478 25.4293 6.98931 25.5484 7.02084 25.5484C7.05237 25.5484 7.20281 25.4156 7.35516 25.2533ZM13.6262 26.8782C11.0156 26.1989 9.33038 23.7283 9.65183 21.0515C9.8792 19.1582 10.9293 17.6703 12.6314 16.8297C13.4626 16.4192 14.0953 16.3033 15.3066 16.3393C16.4669 16.3738 16.903 16.4771 17.7372 16.9147C18.2863 17.2027 19.1168 17.8315 19.1168 17.9593C19.1168 18.0047 18.9912 18.2033 18.8376 18.4005C18.684 18.5976 18.5288 18.807 18.4927 18.8657C18.4361 18.9577 18.3713 18.9202 18.0252 18.5955C17.5644 18.1633 16.9093 17.8027 16.292 17.6414C15.7227 17.4927 14.5682 17.4898 14.0009 17.6357C12.73 17.9626 11.6284 18.9656 11.1899 20.1952C10.9401 20.8958 10.897 22.0868 11.0957 22.7981C11.3764 23.8031 11.952 24.6108 12.7702 25.1483C13.5524 25.6621 13.9714 25.7742 15.1095 25.7742C15.9099 25.7742 16.1359 25.7514 16.5246 25.6313C17.0742 25.4615 17.6523 25.1075 18.0822 24.6778C18.2538 24.5061 18.4055 24.3778 18.4192 24.3925C18.5543 24.5382 19.1168 25.3093 19.1168 25.3489C19.1168 25.4644 18.3958 26.0584 17.9353 26.3223C17.6649 26.4773 17.1771 26.6903 16.8514 26.7958C16.3183 26.9683 16.1574 26.9898 15.2409 27.0105C14.3293 27.031 14.1601 27.0172 13.6262 26.8782ZM22.0407 26.9284C21.0294 26.7083 20.2259 26.2583 19.4076 25.4534C18.7757 24.832 18.3882 24.2185 18.114 23.4052C17.9354 22.8754 17.9089 22.6987 17.8838 21.871C17.8599 21.0823 17.8768 20.8473 17.9916 20.3736C18.1452 19.7394 18.411 19.1237 18.729 18.6653C19.2377 17.9323 20.2727 17.0522 20.9503 16.7766C21.0809 16.7235 21.1331 16.6728 21.0865 16.6445C21.0449 16.6193 21.0947 16.5991 21.1971 16.5998C21.2994 16.6004 21.6197 16.535 21.9088 16.4545C22.6481 16.2486 23.8996 16.2422 24.7201 16.4402C26.4763 16.864 27.9339 18.1631 28.5169 19.8243C28.927 20.9927 28.9266 22.2759 28.5156 23.4805C28.2783 24.176 28.0126 24.6337 27.5132 25.207C26.8305 25.9907 25.8483 26.6105 24.865 26.8781C24.2999 27.0319 22.6512 27.0613 22.0407 26.9284H22.0407ZM24.4077 25.7066C25.9069 25.3245 27.0245 24.1736 27.3677 22.6584C27.5271 21.9549 27.468 20.84 27.237 20.1936C26.7962 18.9598 25.7004 17.9616 24.4298 17.6362C23.8738 17.4937 22.7724 17.4968 22.2091 17.6423C19.9246 18.2325 18.6394 20.7179 19.4053 23.0645C19.8092 24.3024 20.8854 25.325 22.1614 25.6836C22.6909 25.8324 23.867 25.8445 24.4077 25.7066V25.7066ZM23.8467 25.4839C23.923 25.4354 23.9251 25.4211 23.8559 25.4203C23.8068 25.4198 23.9398 25.2938 24.1515 25.1404C24.6082 24.8096 25.1421 24.2492 25.3791 23.852C25.4728 23.6949 25.6309 23.3374 25.7303 23.0574C25.8936 22.5979 25.911 22.4636 25.9097 21.6774C25.9084 20.9097 25.8875 20.7453 25.7338 20.2903C25.4009 19.3053 24.6828 18.4415 23.8139 17.9807C23.7055 17.9232 23.6422 17.875 23.6733 17.8736C23.8363 17.8661 24.5676 18.331 24.9028 18.6551C25.4027 19.1385 25.7203 19.6156 25.9228 20.1877C26.3511 21.3971 26.2202 22.7987 25.5812 23.8468C25.3263 24.2649 24.7227 24.9012 24.3852 25.1078C24.2659 25.1808 24.1838 25.2558 24.2028 25.2745C24.2602 25.3308 24.9382 24.7962 25.2058 24.4835C25.9209 23.6482 26.2339 22.794 26.2342 21.6774C26.2344 20.8875 26.1166 20.369 25.7864 19.7055C25.5156 19.1612 24.9129 18.4939 24.372 18.1391C23.8457 17.794 24.0264 17.7315 24.6547 18.0413C25.9257 18.6681 26.8029 20.1563 26.8029 21.6858C26.8029 23.1938 25.9089 24.6865 24.6208 25.3293C24.2766 25.501 24.0944 25.539 24.4051 25.3742C25.0939 25.009 25.7912 24.2745 26.1431 23.5438C26.4572 22.8916 26.5633 22.2989 26.522 21.4265C26.4693 20.311 26.1601 19.5479 25.4465 18.7721C25.1818 18.4845 24.5808 18.0317 24.53 18.0817C24.5117 18.0996 24.6005 18.1773 24.7273 18.2543C25.1071 18.4848 25.7983 19.2705 26.0417 19.7483C26.3795 20.4115 26.4992 21.0308 26.4569 21.8966C26.414 22.7743 26.2199 23.381 25.7796 24.0139C25.3869 24.5784 24.8986 25.0126 24.3219 25.3102C23.8993 25.5283 23.6103 25.6339 23.8467 25.4839ZM24.1095 25.3548C24.1637 25.3204 24.1785 25.2923 24.1423 25.2923C24.1062 25.2923 24.0323 25.3204 23.9781 25.3548C23.9239 25.3892 23.9091 25.4174 23.9453 25.4174C23.9814 25.4174 24.0553 25.3892 24.1095 25.3548ZM24.3723 17.9677C24.2819 17.917 24.1785 17.8755 24.1423 17.8755C24.1062 17.8755 24.1505 17.917 24.2409 17.9677C24.3312 18.0185 24.4347 18.0599 24.4708 18.0599C24.5069 18.0599 24.4626 18.0185 24.3723 17.9677ZM24.6503 25.5053C24.6025 25.4864 24.7285 25.3695 24.946 25.2309C25.3841 24.9517 26.042 24.2824 26.2947 23.859C26.3907 23.6981 26.5506 23.3374 26.65 23.0574C26.8133 22.5979 26.8307 22.4636 26.8294 21.6774C26.8281 20.9097 26.8072 20.7453 26.6535 20.2903C26.3206 19.3053 25.6025 18.4415 24.7336 17.9807C24.6252 17.9232 24.5619 17.875 24.593 17.8736C24.7509 17.8663 25.4779 18.3239 25.8113 18.6404C26.9591 19.7298 27.3682 21.3041 26.9269 22.9335C26.7785 23.4813 26.3927 24.0863 25.8455 24.629C25.5503 24.9218 25.3369 25.1613 25.3713 25.1613C25.4056 25.1613 25.6651 24.9312 25.948 24.65C26.7929 23.8101 27.1568 22.9154 27.1568 21.6774C27.1568 20.8849 27.039 20.3744 26.6986 19.6906C26.421 19.1328 25.8226 18.4755 25.2591 18.1092C24.8058 17.8145 24.9572 17.8414 25.4788 18.1483C25.989 18.4484 26.6743 19.1846 26.9532 19.7322C27.2991 20.4112 27.4192 21.0251 27.3766 21.8966C27.3184 23.0869 26.888 24.0085 26.0311 24.7777C25.7464 25.0332 24.8484 25.5706 24.7516 25.5433C24.7417 25.5405 24.6961 25.5234 24.6503 25.5053ZM25.0382 25.3503C25.1848 25.2769 25.2913 25.2036 25.2749 25.1875C25.2585 25.1714 25.1152 25.2312 24.9565 25.3203C24.608 25.5159 24.6655 25.5371 25.0382 25.3503ZM8.47514 26.6141C8.35473 26.3977 8.33315 26.3065 8.38924 26.2514C8.44533 26.1964 8.50672 26.2604 8.63354 26.5061C8.8281 26.8832 8.83243 26.9032 8.71944 26.9032C8.67352 26.9032 8.56358 26.7731 8.47514 26.6141ZM8.74217 26.5369C8.52345 26.1403 8.50937 26.0908 8.59976 26.036C8.63254 26.0161 8.76557 26.1895 8.89538 26.4215C9.16388 26.9012 9.16448 26.9032 9.03779 26.9032C8.98631 26.9032 8.85328 26.7384 8.74217 26.5369ZM8.96717 26.3871C8.80051 26.0514 8.73336 25.849 8.77507 25.808C8.81678 25.767 8.94935 25.9475 9.15428 26.3241C9.42564 26.8229 9.4523 26.9032 9.34638 26.9032C9.2578 26.9032 9.15172 26.7589 8.96717 26.3871ZM9.21127 26.2726C9.00023 25.8763 8.89513 25.6107 8.92842 25.5578C8.98567 25.4668 9.14236 25.6998 9.51747 26.4336C9.75118 26.8909 9.75427 26.9032 9.63486 26.9032C9.58659 26.9032 9.39597 26.6194 9.21127 26.2726ZM9.464 26.1774C9.09356 25.4984 8.99427 25.2258 9.11744 25.2258C9.16313 25.2258 10.0511 26.791 10.0511 26.8715C10.0511 26.8889 10.0081 26.9032 9.95555 26.9032C9.90106 26.9032 9.68979 26.5913 9.464 26.1774ZM3.13352 26.6283C2.38978 26.2206 1.79921 25.4826 1.55007 24.6496C1.39884 24.1439 1.4117 23.2171 1.57726 22.6907C1.82775 21.8942 2.42739 21.1938 3.20885 20.7847C3.73219 20.5108 3.7999 20.5251 3.31367 20.8068C2.89177 21.0513 2.38323 21.5523 2.12993 21.9729C1.55548 22.9269 1.50675 24.2206 2.00621 25.2575C2.2252 25.7121 2.85607 26.3836 3.30645 26.6415C3.76356 26.9032 3.61426 26.8918 3.13352 26.6283ZM3.44892 26.6287C2.6351 26.2021 2.00925 25.3599 1.8073 24.4194C1.68625 23.8556 1.68541 23.5671 1.80324 23.0211C1.93234 22.4228 2.19417 21.9319 2.63749 21.4567C3.07485 20.988 3.86167 20.5303 4.05112 20.6344C4.1454 20.6862 4.13041 20.7106 3.94677 20.8038C3.82883 20.8637 3.74562 20.9258 3.76186 20.9418C3.77811 20.9577 3.92128 20.8979 4.08001 20.8087C4.52535 20.5587 4.53406 20.6156 4.09327 20.8954C3.70627 21.1411 3.17907 21.7037 2.97793 22.0857C2.46589 23.0581 2.44937 24.2863 2.93514 25.2667C3.16624 25.7331 3.77852 26.3851 4.22616 26.6415C4.41291 26.7484 4.53614 26.8355 4.50001 26.835C4.46388 26.8346 4.36041 26.7927 4.27008 26.7419C4.08096 26.6358 3.98341 26.6195 4.0359 26.7029C4.05589 26.7347 4.02566 26.7782 3.96871 26.7997C3.8412 26.8478 3.91017 26.8704 3.44891 26.6287L3.44892 26.6287ZM3.83921 26.6741C3.71642 26.5777 3.71778 26.5753 3.87592 26.6108C4.02928 26.6453 4.03159 26.6423 3.91069 26.5658C3.83949 26.5207 3.59892 26.3154 3.3761 26.1096C2.69689 25.4822 2.36498 24.7056 2.36498 23.7438C2.36498 22.7413 2.63308 22.0804 3.32523 21.3768C3.54658 21.1518 3.70444 20.9677 3.67602 20.9677C3.55839 20.9677 2.88271 21.7257 2.70285 22.0595C2.40768 22.6072 2.29928 23.0499 2.29928 23.7078C2.29928 24.7608 2.56558 25.414 3.29255 26.144C3.53173 26.3841 3.71259 26.5807 3.69446 26.5807C3.58074 26.5807 3.17215 26.2594 2.88849 25.947C1.9465 24.9095 1.76557 23.3695 2.43935 22.124C2.68392 21.6719 3.25757 21.0899 3.6826 20.8627C3.86155 20.7671 3.99504 20.6761 3.97923 20.6606C3.96342 20.6451 3.79732 20.7142 3.61011 20.8143C3.1937 21.0369 2.55422 21.7085 2.33452 22.1541C1.56819 23.7082 2.05916 25.6498 3.44012 26.5263C3.82644 26.7716 4.08554 26.8675 3.83921 26.6741V26.6741ZM2.65884 26.5262C0.880808 25.4183 0.587727 22.9279 2.05721 21.414C2.37977 21.0816 3.12064 20.5916 3.19301 20.6626C3.21056 20.6799 3.09034 20.7714 2.92584 20.8661C2.26558 21.2461 1.63115 22.1167 1.4414 22.9032C1.31649 23.4209 1.34518 24.2732 1.50437 24.7742C1.72932 25.4821 2.30418 26.2332 2.87032 26.5591C3.02596 26.6486 3.1533 26.7337 3.1533 26.748C3.1533 26.8124 3.02741 26.7559 2.65884 26.5262ZM11.6817 26.5143C11.4765 26.4103 11.29 26.2955 11.2672 26.2593C11.215 26.1763 11.3177 26.1729 11.4012 26.2549C11.4356 26.2887 11.6263 26.4043 11.8249 26.5118C12.2871 26.762 12.174 26.7639 11.6817 26.5143V26.5143ZM11.9234 26.4644C11.3031 26.138 11.1101 26.006 11.025 25.8499C10.9696 25.7482 11.0191 25.7665 11.2412 25.9298C11.737 26.2944 12.0233 26.4718 12.0591 26.4366C12.078 26.418 11.9644 26.3284 11.8065 26.2376C11.3855 25.9953 10.8515 25.5019 10.705 25.2199C10.5941 25.0065 10.6493 25.0449 11.1188 25.5074C11.4168 25.801 11.8525 26.1625 12.0871 26.3109C12.3216 26.4593 12.4694 26.5811 12.4155 26.5816C12.329 26.5825 12.3291 26.59 12.416 26.6452C12.6626 26.8016 12.338 26.6825 11.9233 26.4644H11.9234ZM12.2847 26.5161C12.2305 26.4817 12.1566 26.4536 12.1204 26.4536C12.0843 26.4536 12.0991 26.4817 12.1533 26.5161C12.2075 26.5505 12.2814 26.5787 12.3175 26.5787C12.3537 26.5787 12.3389 26.5505 12.2847 26.5161ZM19.6193 26.5087C19.408 26.4016 19.2204 26.3283 19.2026 26.3459C19.1847 26.3634 19.2837 26.4367 19.4226 26.5086C19.5615 26.5806 19.6518 26.6407 19.6233 26.6423C19.4634 26.6511 18.4685 26.051 18.5816 26.0139C18.6209 26.0011 18.7582 26.0693 18.8867 26.1656C19.0152 26.2618 19.1359 26.3253 19.1549 26.3067C19.1739 26.288 19.0844 26.209 18.956 26.1311C18.8277 26.0532 18.7226 25.9628 18.7226 25.9302C18.7226 25.8341 18.7679 25.8565 19.1895 26.1613C19.4104 26.321 19.6233 26.4516 19.6627 26.4516C19.7529 26.4516 19.7066 26.4141 19.2318 26.1029C19.024 25.9667 18.854 25.8298 18.854 25.7986C18.854 25.7049 18.9217 25.7326 19.1764 25.9307C19.3099 26.0346 19.5795 26.2233 19.7756 26.3501C19.9716 26.4769 20.0884 26.5811 20.035 26.5816C19.9504 26.5825 19.9506 26.5907 20.0365 26.6452C20.2491 26.7801 19.9833 26.6932 19.6193 26.5087ZM19.9051 26.5161C19.8509 26.4817 19.777 26.4536 19.7409 26.4536C19.7047 26.4536 19.7195 26.4817 19.7737 26.5161C19.8279 26.5505 19.9018 26.5787 19.938 26.5787C19.9741 26.5787 19.9593 26.5505 19.9051 26.5161ZM20.2007 26.4974C19.4628 26.1054 18.8296 25.6129 19.0636 25.6129C19.1178 25.6129 19.2179 25.6734 19.2861 25.7474C19.4594 25.9355 20.036 26.3446 20.0745 26.3068C20.092 26.2896 20.0241 26.2236 19.9236 26.1601C19.5741 25.9392 19.1169 25.5359 19.1522 25.4798C19.1718 25.4487 19.4157 25.6113 19.6943 25.8412C19.9728 26.071 20.3837 26.3526 20.6072 26.4669C20.8308 26.5812 21.0038 26.6845 20.9916 26.6964C20.9795 26.7084 20.7861 26.6272 20.562 26.5161C20.3379 26.405 20.1399 26.3286 20.122 26.3462C20.104 26.3638 20.2327 26.4514 20.4078 26.5409C20.583 26.6304 20.6967 26.7044 20.6606 26.7052C20.6245 26.7061 20.4175 26.6125 20.2007 26.4974ZM11.4596 26.5448C11.3394 26.4502 11.3415 26.4489 11.4964 26.5213C11.6974 26.6154 11.7347 26.6452 11.6512 26.6452C11.616 26.6452 11.5298 26.6 11.4596 26.5448ZM15.7076 25.4249C15.6369 25.3809 15.6629 25.344 15.8212 25.2636C15.9341 25.2063 16.2201 24.9815 16.4566 24.7642C16.6932 24.5469 16.9062 24.3882 16.93 24.4115C16.9942 24.4746 16.4981 24.954 16.174 25.1422C16.0189 25.2323 15.908 25.3218 15.9277 25.3412C15.9883 25.4006 16.6791 24.8986 16.9452 24.6017C17.1305 24.395 17.2068 24.346 17.2342 24.4161C17.2829 24.5408 16.7154 25.0291 16.2211 25.2878C15.7977 25.5095 15.8298 25.5009 15.7076 25.4249ZM16.4624 25.2339C16.6758 25.0964 16.9822 24.8497 17.1432 24.6855C17.4384 24.3848 17.5402 24.3267 17.5402 24.4591C17.5402 24.5525 17.0357 25.012 16.795 25.1378C16.6923 25.1914 16.6232 25.2501 16.6416 25.2681C16.7046 25.3299 16.9825 25.1394 17.3926 24.7531C17.6186 24.5403 17.8255 24.3881 17.8525 24.415C17.8794 24.4418 17.7301 24.6207 17.5207 24.8125C17.3112 25.0044 17.1706 25.1613 17.2081 25.1613C17.2456 25.1613 17.4673 24.9773 17.7009 24.7524C17.9708 24.4925 18.1374 24.3738 18.158 24.4267C18.2368 24.6282 16.9014 25.5362 16.6601 25.4453C16.6026 25.4236 16.5719 25.3798 16.5919 25.3481C16.6443 25.2647 16.5468 25.2809 16.3577 25.3871C16.0188 25.5774 16.0892 25.4744 16.4624 25.2339ZM16.9583 25.3178C17.0682 25.262 17.1419 25.2003 17.122 25.1807C17.1021 25.1612 16.9885 25.2064 16.8695 25.2812C16.6156 25.4409 16.6709 25.4638 16.9583 25.3178ZM16.965 24.3093C16.926 24.2632 16.8288 24.0659 16.749 23.8708C16.1843 22.4904 16.1618 20.9505 16.687 19.6253C16.935 18.9996 16.988 18.9158 17.0791 19.0053C17.1286 19.0539 17.1034 19.1765 16.9933 19.4241C16.67 20.151 16.5876 20.6084 16.5876 21.6774C16.5876 22.7341 16.6498 23.0888 16.973 23.8746C17.1227 24.2385 17.118 24.4904 16.965 24.3093ZM17.095 23.9479C16.7803 23.2567 16.6793 22.809 16.6401 21.9308C16.5997 21.0267 16.6953 20.3924 16.9876 19.6255C17.3507 18.6728 17.5179 18.7569 17.1897 19.7271C16.7269 21.0953 16.7258 22.2802 17.186 23.6048C17.4623 24.3998 17.4028 24.6239 17.095 23.9479H17.095ZM17.4082 23.9768C16.9059 22.8888 16.7875 21.4491 17.1019 20.2523C17.2911 19.5323 17.5809 18.9175 17.6837 19.0184C17.7299 19.0638 17.6989 19.2137 17.5853 19.494C17.2511 20.3183 17.1842 20.6824 17.1842 21.6774C17.1842 22.6725 17.2511 23.0366 17.5853 23.8609C17.7047 24.1556 17.7312 24.2898 17.6798 24.3403C17.6284 24.3908 17.5523 24.289 17.4082 23.9768ZM17.8855 24.3092C17.7756 24.1773 17.4994 23.4718 17.369 22.9894C17.208 22.3942 17.2049 20.9906 17.3633 20.3659C17.5145 19.7692 17.8657 18.9557 17.9581 18.9879C18.0569 19.0223 18.0446 19.0772 17.7616 19.871C17.5429 20.484 17.517 20.6286 17.489 21.3924C17.4536 22.3573 17.5566 23.0054 17.8725 23.8046C18.0472 24.2467 18.054 24.5113 17.8855 24.3092H17.8855ZM18.0317 23.9867C17.4278 22.6682 17.3805 21.0077 17.9073 19.6255C18.2709 18.6717 18.4375 18.7572 18.1088 19.7289C17.605 21.2182 17.6552 22.5574 18.2704 24.0475C18.331 24.1943 18.336 24.2765 18.2871 24.3245C18.2382 24.3725 18.1624 24.2722 18.0317 23.9867ZM9.10537 22.2094C8.99982 21.9787 8.98668 21.841 9.01926 21.3073C9.07573 20.3822 9.32561 19.5751 9.79788 18.7923C10.0742 18.3343 11.0327 17.3713 11.4501 17.1324C11.6233 17.0332 11.749 16.9362 11.7293 16.9169C11.6661 16.8549 10.9522 17.3746 10.5515 17.7742C9.53236 18.7906 8.94075 20.1266 8.93141 21.4328L8.92851 21.8387L8.80393 21.6073C8.69367 21.4024 8.68697 21.3208 8.74566 20.8976C8.8296 20.2923 9.14501 19.356 9.40644 18.9363C9.72839 18.4193 10.2486 17.821 10.6747 17.4777C11.1589 17.0876 12.0335 16.6288 12.1845 16.6857C12.2687 16.7175 12.2291 16.7638 12.0098 16.8906C10.7958 17.5925 9.83875 18.7826 9.45611 20.0663C9.3507 20.4199 9.30141 20.806 9.27117 21.515L9.22994 22.4817L9.10537 22.2094ZM12.0219 16.8065C12.1122 16.7557 12.1566 16.7143 12.1204 16.7143C12.0843 16.7143 11.9808 16.7557 11.8905 16.8065C11.8002 16.8572 11.7558 16.8987 11.792 16.8987C11.8281 16.8987 11.9316 16.8572 12.0219 16.8065ZM8.50149 21.0875C8.34868 20.8447 8.69863 19.5997 9.11338 18.9106C9.58557 18.1261 10.5443 17.2363 11.3199 16.8627C11.5637 16.7453 11.6635 16.6664 11.6103 16.6332C11.5657 16.6054 11.5588 16.5826 11.5949 16.5826C11.631 16.5826 11.7014 16.608 11.7514 16.6391C11.8233 16.6838 11.8143 16.7043 11.7087 16.7372C11.4464 16.8189 10.741 17.3104 10.3264 17.7003C9.81953 18.1769 9.39996 18.7387 9.13386 19.2972C8.92288 19.74 8.67154 20.6167 8.67154 20.9097C8.67154 21.1072 8.57642 21.2066 8.50149 21.0875ZM8.24353 20.5775C8.18569 20.3986 8.4348 19.6132 8.71801 19.0817C9.1583 18.2553 10.0016 17.4159 10.8786 16.9311C11.3461 16.6726 11.5379 16.63 11.1022 16.8815C9.77211 17.6489 8.73824 19.0098 8.46308 20.3554C8.38714 20.7268 8.31526 20.7995 8.24353 20.5775ZM6.45791 20.3345C6.36927 20.2804 4.33578 16.4416 4.33578 16.3283C4.33578 16.0938 4.555 16.403 5.04379 17.327C6.63707 20.3387 6.70638 20.4861 6.45791 20.3345ZM5.10166 20.1774C4.80663 19.7076 3.09572 16.3619 3.12594 16.3139C3.20941 16.1812 3.25441 16.2584 4.75876 19.1129C5.21487 19.9784 5.36731 20.3226 5.29454 20.3226C5.23859 20.3226 5.1518 20.2573 5.10166 20.1774ZM4.44711 18.3659C3.88004 17.2897 3.41607 16.3728 3.41607 16.3283C3.41607 16.0669 3.69002 16.509 4.61497 18.2631C5.18404 19.3422 5.64965 20.2471 5.64965 20.2739C5.64965 20.3007 5.61106 20.3226 5.5639 20.3226C5.51674 20.3226 5.01418 19.4421 4.44711 18.3659ZM5.21875 19.2419C4.90426 18.6476 4.4294 17.7522 4.1635 17.2521C3.72495 16.4274 3.66564 16.2581 3.81525 16.2581C3.85827 16.2581 5.97811 20.2108 5.97811 20.291C5.97811 20.3084 5.93591 20.3226 5.88433 20.3226C5.82958 20.3226 5.55261 19.8729 5.21875 19.2419ZM6.02137 20.1774C5.72634 19.7076 4.01542 16.3619 4.04565 16.3139C4.13031 16.1793 4.21649 16.3262 5.61261 18.9839C6.11361 19.9376 6.28661 20.3226 6.21419 20.3226C6.15828 20.3226 6.07151 20.2573 6.02137 20.1774ZM16.552 18.6693C16.3909 18.5052 16.0846 18.2584 15.8712 18.1209C15.405 17.8205 15.451 17.7942 15.9582 18.0712C16.3078 18.2621 16.9489 18.8094 16.9489 18.9169C16.9489 19.0275 16.8319 18.9546 16.552 18.6693ZM16.8777 18.6703C16.7181 18.5097 16.4138 18.2663 16.2013 18.1294C15.8232 17.8857 15.8197 17.8807 16.0371 17.898C16.3196 17.9204 16.7006 18.1119 17.1379 18.4514C17.4781 18.7155 17.5954 18.8705 17.515 18.9494C17.4923 18.9718 17.3723 18.8737 17.2483 18.7315C17.008 18.4558 16.3159 17.955 16.2561 18.0137C16.2365 18.033 16.3473 18.1226 16.5025 18.2127C16.8407 18.409 17.3139 18.8735 17.2285 18.9253C17.1951 18.9456 17.0372 18.8308 16.8777 18.6703ZM17.4717 18.6693C17.3106 18.5052 17.0043 18.2584 16.7909 18.1209C16.34 17.8304 16.354 17.8016 16.8307 18.0388C17.1569 18.2012 17.8686 18.8003 17.8686 18.9126C17.8686 19.0276 17.755 18.958 17.4717 18.6693ZM17.7974 18.6703C17.6378 18.5097 17.3299 18.2609 17.1131 18.1173C16.6641 17.8198 16.8081 17.839 17.3265 18.1457C17.7215 18.3794 18.239 18.8702 18.1484 18.9252C18.1149 18.9455 17.9569 18.8308 17.7974 18.6703V18.6703ZM19.1531 17.8765C19.1096 17.8074 19.799 17.2185 20.1058 17.0627C20.2122 17.0086 20.2993 16.9507 20.2993 16.9338C20.2993 16.8416 20.1142 16.9462 19.6119 17.3226C19.3041 17.5532 19.0372 17.7419 19.0189 17.7419C18.8001 17.7419 19.5438 17.1811 20.1827 16.8643C20.6 16.6573 20.8436 16.5727 20.6277 16.7097C20.5408 16.7649 20.5407 16.7723 20.6272 16.7732C20.6811 16.7737 20.5402 16.8929 20.314 17.0381C20.0878 17.1832 19.743 17.4453 19.5477 17.6206C19.3524 17.7959 19.1749 17.9111 19.1532 17.8765H19.1531ZM20.4964 16.8387C20.5506 16.8043 20.5653 16.7762 20.5292 16.7762C20.4931 16.7762 20.4192 16.8043 20.365 16.8387C20.3108 16.8731 20.296 16.9013 20.3321 16.9013C20.3683 16.9013 20.4422 16.8731 20.4964 16.8387ZM18.854 17.5471C18.854 17.4703 19.7209 16.9026 20.0306 16.7766C20.1837 16.7143 20.2185 16.6755 20.1559 16.6365C20.1083 16.6069 20.0989 16.5826 20.135 16.5826C20.1712 16.5826 20.2375 16.6055 20.2824 16.6335C20.3373 16.6678 20.2716 16.7285 20.0817 16.8191C19.9265 16.8932 19.5999 17.1021 19.3561 17.2833C18.8846 17.6338 18.854 17.6499 18.854 17.5471ZM18.7226 17.4205C18.7226 17.3815 18.8708 17.2591 19.0518 17.1486C19.2328 17.038 19.3659 16.9328 19.3474 16.9147C19.329 16.8966 19.1505 16.9923 18.9508 17.1273C18.7511 17.2624 18.5721 17.3575 18.5529 17.3387C18.4561 17.2436 19.6453 16.6256 19.8075 16.6867C19.888 16.717 19.845 16.7664 19.6302 16.8901C19.4743 16.9799 19.2433 17.1309 19.1168 17.2256C18.7957 17.466 18.7226 17.5021 18.7226 17.4205ZM19.6423 16.8065C19.7327 16.7557 19.777 16.7143 19.7409 16.7143C19.7047 16.7143 19.6013 16.7557 19.511 16.8065C19.4206 16.8572 19.3763 16.8987 19.4124 16.8987C19.4485 16.8987 19.552 16.8572 19.6423 16.8065ZM15.9635 16.2195C14.5065 15.9559 13.5511 15.4619 12.65 14.506C12.0887 13.9106 11.7339 13.3229 11.4792 12.5665C11.302 12.0403 11.274 11.8559 11.2482 11.0454C11.2232 10.2599 11.2399 10.0333 11.3609 9.51907C11.6665 8.22025 12.4703 7.07501 13.6096 6.31519C14.453 5.75276 15.3019 5.48936 16.4398 5.4371C18.148 5.35865 19.419 5.8064 20.5798 6.89547C21.7216 7.9668 22.2701 9.24639 22.2701 10.8387C22.2701 11.8721 22.0189 12.8059 21.5128 13.654C21.3348 13.9523 21.3335 13.9634 21.3458 15.0473C21.3575 16.0707 21.3508 16.1386 21.2394 16.1176C21.1331 16.0976 21.1185 16.0068 21.102 15.2651C21.0873 14.6057 21.1042 14.4041 21.1841 14.2843C21.3902 13.9754 21.2728 14.047 20.8899 14.4636C19.8256 15.6217 18.5717 16.1827 16.9489 16.2268C16.4973 16.2391 16.0538 16.2358 15.9635 16.2195ZM17.9343 14.8614C19.8854 14.3279 21.1534 12.368 20.8907 10.292C20.7647 9.29638 20.4339 8.6019 19.7429 7.88268C18.9941 7.10323 18.1445 6.7292 16.9818 6.66712C15.5409 6.59019 14.347 7.10335 13.4767 8.17361C12.8444 8.95122 12.5852 9.71511 12.5834 10.8065C12.582 11.6439 12.6697 12.0435 13.0083 12.7426C13.5784 13.9197 14.776 14.7926 16.062 14.9683C16.5735 15.0382 17.4765 14.9866 17.9343 14.8614ZM17.1788 14.5691C17.7833 14.2587 18.4594 13.612 18.8317 12.9883C19.322 12.1666 19.512 10.8488 19.2847 9.8458C19.0564 8.83763 18.3808 7.85185 17.5406 7.30086C17.2617 7.11796 17.1789 7.03368 17.2512 7.00641C17.307 6.9854 17.4076 6.99714 17.4749 7.03249C17.6391 7.1188 17.8076 7.11861 17.6715 7.03224C17.4636 6.90027 17.693 6.97645 18.084 7.16921C18.684 7.465 19.4928 8.28858 19.7927 8.90914C20.7062 10.7991 20.1426 13.1127 18.4975 14.2254C18.2961 14.3616 18.1456 14.4871 18.163 14.5042C18.2192 14.5593 18.7399 14.1716 19.1141 13.7959C19.8678 13.0393 20.2259 12.1996 20.2817 11.0578C20.3082 10.5159 20.2894 10.2208 20.2045 9.84577C19.9748 8.83205 19.292 7.8395 18.4545 7.30213C18.157 7.11121 18.086 7.03841 18.1672 7.00777C18.2272 6.98517 18.4258 7.0412 18.6139 7.13376C19.3805 7.51107 20.0407 8.16825 20.4273 8.93887C20.9968 10.0741 20.9631 11.7268 20.3473 12.8616C20.0839 13.3468 19.3633 14.1023 18.9106 14.3678C18.3731 14.683 18.2449 14.6987 18.704 14.393C19.9885 13.538 20.709 12.0804 20.6063 10.545C20.5324 9.439 20.125 8.54134 19.3531 7.78329C19.0159 7.45206 18.3888 7.03345 18.2299 7.03345C18.1938 7.03345 18.3268 7.12441 18.5256 7.23559C18.7243 7.34678 19.099 7.64854 19.3582 7.90618C20.4916 9.03266 20.8382 10.6633 20.2927 12.3026C20.0099 13.1524 19.2314 14.0473 18.4031 14.4748C17.954 14.7065 17.6809 14.7967 18 14.6079L18.1642 14.5107L18 14.5475L17.8358 14.5842L17.9975 14.4695C18.7893 13.9079 19.2507 13.4016 19.5778 12.7354C20.1599 11.5498 20.1263 9.91774 19.4958 8.75594C19.2417 8.28782 18.57 7.56672 18.1294 7.28902C17.9471 7.17414 17.7829 7.09488 17.7646 7.11287C17.7463 7.13087 17.8671 7.22376 18.0331 7.31931C18.7156 7.71207 19.3919 8.55226 19.6897 9.37716C19.9363 10.0603 19.9768 11.2559 19.7774 11.9694C19.6991 12.2499 19.5421 12.6505 19.4285 12.8597C19.1643 13.3465 18.4442 14.102 17.9909 14.3678C17.4534 14.683 17.3252 14.6987 17.7843 14.393C20.0257 12.901 20.362 9.72302 18.4792 7.82579C18.1643 7.50843 17.5854 7.09678 17.4541 7.09678C17.4209 7.09678 17.5741 7.21501 17.7944 7.35952C19.373 8.39479 20.0124 10.3958 19.3738 12.3026C19.0919 13.1444 18.3029 14.0518 17.4867 14.4731C17.2345 14.6032 17.003 14.7084 16.9721 14.7068C16.9413 14.7053 17.0343 14.6433 17.1788 14.5691ZM37.663 16.1974C37.4757 16.1681 37.1161 16.0826 36.864 16.0074C36.6119 15.9322 36.3513 15.888 36.2849 15.9092C36.2078 15.9338 36.1924 15.9275 36.2423 15.8918C36.2949 15.8542 36.1878 15.7678 35.9138 15.627C34.6886 14.9969 33.6286 13.7121 33.2394 12.3853C33.0569 11.7631 32.9916 10.4954 33.1086 9.84738C33.2181 9.24037 33.4929 8.48632 33.7715 8.02809C34.0839 7.51423 34.9411 6.63857 35.4693 6.29369C36.0272 5.92945 36.7799 5.6319 37.4684 5.50349C38.1239 5.38121 39.5132 5.42295 40.1035 5.58266C42.0359 6.10547 43.5731 7.712 43.9766 9.63038C44.1049 10.2408 44.11 11.4326 43.9866 12.0042C43.5631 13.9658 42.0283 15.5546 40.0549 16.0742C39.5197 16.215 38.2079 16.2826 37.663 16.1974ZM39.9416 14.8012C41.2077 14.4076 42.2473 13.2937 42.6162 11.9355C42.7697 11.3703 42.7656 10.2466 42.6079 9.67742C42.219 8.27348 41.1792 7.21694 39.7739 6.79768C39.1798 6.62044 37.8914 6.63272 37.281 6.82143C35.944 7.2348 34.8819 8.35393 34.5092 9.74194C34.2431 10.7329 34.4353 12.1455 34.9538 13.0083C35.4328 13.8055 36.3902 14.5597 37.281 14.8417C37.9874 15.0653 39.149 15.0477 39.9416 14.8012ZM39.1185 14.4983C39.6629 14.2097 40.3782 13.4907 40.6776 12.9311C41.0849 12.1699 41.2095 11.5991 41.1757 10.6491C41.1523 9.98974 41.1152 9.75087 40.9766 9.36731C40.6553 8.47851 39.9283 7.60902 39.1308 7.15983C38.6735 6.90222 38.805 6.91545 39.3058 7.17742C40.1489 7.61848 40.914 8.52336 41.226 9.44844C41.7763 11.0801 41.237 13.0437 39.9665 14.034C39.5065 14.3926 39.5122 14.3871 39.5988 14.3871C39.7379 14.3871 40.5922 13.5424 40.8629 13.1372C41.428 12.2915 41.6584 10.958 41.4227 9.8973C41.1929 8.86308 40.6053 7.97242 39.7601 7.37724C39.1707 6.96213 39.2816 6.85742 39.947 7.20082C40.7821 7.63177 41.5489 8.54842 41.8569 9.48388C42.0499 10.0704 42.0951 11.2254 41.949 11.8387C41.7324 12.7475 41.0743 13.7232 40.3411 14.2222C40.1923 14.3234 40.0845 14.4199 40.1016 14.4367C40.1652 14.4992 40.8189 13.9668 41.1319 13.5975C41.7984 12.811 42.1101 11.931 42.1085 10.84C42.1067 9.56782 41.7581 8.68895 40.9282 7.86382C40.6566 7.59376 40.2717 7.28193 40.073 7.17088C39.6713 6.94641 39.6713 6.89554 40.073 7.09678C40.3738 7.24748 40.489 7.26237 40.3068 7.12699C40.101 6.97416 40.2664 7.01811 40.5928 7.203C41.3487 7.63127 42.0874 8.46505 42.3772 9.21721C42.8077 10.3347 42.7638 11.6533 42.2612 12.6974C42.053 13.1297 41.5377 13.7654 41.1369 14.0839C40.8454 14.3157 40.1365 14.713 40.0256 14.7068C39.9975 14.7053 40.0881 14.6451 40.227 14.5731C40.3659 14.5012 40.4649 14.4279 40.447 14.4104C40.4291 14.3928 40.2654 14.4527 40.0831 14.5434C39.5634 14.802 39.458 14.6822 39.9356 14.3757C40.7628 13.8449 41.4324 12.916 41.6948 11.9355C41.847 11.3666 41.8446 10.2386 41.69 9.68301C41.5404 9.14574 41.2028 8.50065 40.8624 8.10155C40.5617 7.74915 39.845 7.1594 39.7238 7.16468C39.681 7.16654 39.7188 7.21735 39.8077 7.27758C40.7818 7.93734 41.3461 8.70229 41.6253 9.74194C41.776 10.3029 41.7747 11.3755 41.6226 11.9299C41.4094 12.7069 40.9303 13.4677 40.3257 13.989C40.0554 14.2221 39.3606 14.6465 39.2557 14.6426C39.2174 14.6412 39.27 14.5953 39.3726 14.5408C39.6972 14.368 39.5099 14.3709 39.162 14.5441C38.6856 14.7811 38.6519 14.7457 39.1185 14.4983V14.4983ZM39.9416 14.5484C40.0319 14.4977 40.0763 14.4562 40.0401 14.4562C40.004 14.4562 39.9005 14.4977 39.8102 14.5484C39.7199 14.5991 39.6755 14.6406 39.7117 14.6406C39.7478 14.6406 39.8513 14.5991 39.9416 14.5484ZM40.8822 14.1322C41.8555 13.3423 42.3521 12.3402 42.4185 11.0323C42.4757 9.90533 42.1751 8.95992 41.4912 8.11629C41.1967 7.75297 40.496 7.17596 40.4291 7.24167C40.4101 7.26034 40.4942 7.3361 40.616 7.41003C40.9106 7.58881 41.5043 8.21208 41.7619 8.61291C42.0798 9.10758 42.3131 9.86945 42.3543 10.5475C42.4374 11.9164 41.8637 13.2731 40.8765 14.0418C40.4311 14.3886 40.4328 14.3871 40.5045 14.3871C40.5395 14.3871 40.7094 14.2724 40.8822 14.1322ZM39.6131 7.09678C39.5589 7.06238 39.485 7.03424 39.4489 7.03424C39.4128 7.03424 39.4276 7.06238 39.4818 7.09678C39.5359 7.13118 39.6099 7.15932 39.646 7.15932C39.6821 7.15932 39.6673 7.13118 39.6131 7.09678ZM3.02191 10.8387C3.02191 6.17922 3.03366 5.54839 3.12045 5.54839C3.20724 5.54839 3.21899 6.17922 3.21899 10.8387C3.21899 15.4982 3.20724 16.129 3.12045 16.129C3.03366 16.129 3.02191 15.4982 3.02191 10.8387ZM3.28468 10.8387C3.28468 5.5914 3.28575 5.54839 3.41607 5.54839C3.54639 5.54839 3.54746 5.5914 3.54746 10.8387C3.54746 16.086 3.54639 16.129 3.41607 16.129C3.28575 16.129 3.28468 16.086 3.28468 10.8387ZM3.61315 10.8387C3.61315 6.17922 3.6249 5.54839 3.71169 5.54839C3.79848 5.54839 3.81023 6.17922 3.81023 10.8387C3.81023 15.4982 3.79848 16.129 3.71169 16.129C3.6249 16.129 3.61315 15.4982 3.61315 10.8387ZM3.94162 10.8387C3.94162 6.17922 3.95337 5.54839 4.04016 5.54839C4.12695 5.54839 4.1387 6.17922 4.1387 10.8387C4.1387 15.4982 4.12695 16.129 4.04016 16.129C3.95337 16.129 3.94162 15.4982 3.94162 10.8387ZM4.20439 10.8387C4.20439 5.5914 4.20546 5.54839 4.33578 5.54839C4.4661 5.54839 4.46716 5.5914 4.46716 10.8387C4.46716 16.086 4.46609 16.129 4.33578 16.129C4.20546 16.129 4.20439 16.086 4.20439 10.8387ZM4.53286 10.8339V5.53879L6.61862 5.56331C8.53127 5.58579 8.73464 5.59891 9.06886 5.72144C9.6865 5.94787 9.99728 6.13102 10.3932 6.50188C11.0013 7.07154 11.2984 7.8078 11.2969 8.74194C11.2965 9.02581 11.2665 9.3742 11.2303 9.51614C11.1263 9.92394 11.1007 10.8828 11.1769 11.5142C11.3825 13.217 12.2628 14.5736 13.7894 15.5401C14.0208 15.6866 14.1686 15.8069 14.1179 15.8074C14.0428 15.8083 14.0439 15.8201 14.1241 15.871C14.1783 15.9054 14.1931 15.9335 14.1569 15.9335C14.1208 15.9335 14.0469 15.9054 13.9927 15.871C13.9051 15.8154 13.9051 15.8082 13.9927 15.8065C14.0803 15.8047 14.0803 15.7975 13.9927 15.7419C13.8615 15.6587 13.7774 15.6608 13.8311 15.7461C13.8548 15.7838 13.6979 15.7273 13.4822 15.6204C12.7042 15.2347 11.8385 14.4254 11.3311 13.6094C11.0294 13.1241 10.7305 12.2186 10.6431 11.5243C10.581 11.0313 10.585 10.9366 10.6723 10.8418C10.7281 10.7813 10.7737 10.7079 10.7737 10.6787C10.7737 10.6494 10.5967 10.7914 10.3803 10.994C9.94949 11.3976 9.28027 11.7399 8.67154 11.8679C8.47282 11.9097 7.75594 11.961 7.07848 11.9818L5.84673 12.0197V14.0744V16.129H5.18979H4.53286V10.8339V10.8339ZM13.4338 15.4241C12.8553 15.0518 12.508 14.7402 12.074 14.2038C11.4922 13.4848 11.143 12.7147 10.9742 11.7785C10.8735 11.2202 10.8893 10.5099 11.0057 10.3586C11.0588 10.2898 11.1009 10.1882 11.0993 10.1328C11.0977 10.0775 11.033 10.1484 10.9556 10.2903C10.8414 10.4998 10.8181 10.6396 10.8318 11.0323C10.8822 12.4687 11.4267 13.7161 12.4434 14.7245C12.8556 15.1333 13.6036 15.6774 13.7533 15.6774C13.794 15.6774 13.6503 15.5634 13.4338 15.4241ZM8.75904 10.5853C9.25602 10.3947 9.54362 10.1407 9.76454 9.69727C9.91236 9.40056 9.94386 9.24859 9.94749 8.81459C9.95307 8.1483 9.80918 7.72735 9.45055 7.36082C8.95383 6.85314 8.39071 6.70968 6.89459 6.70968H5.84673V8.74878V10.7879L7.11132 10.7601C8.23049 10.7354 8.41998 10.7153 8.75904 10.5853V10.5853ZM7.59319 10.4214C8.11946 10.1116 8.40139 9.5354 8.40589 8.76049C8.40973 8.09672 8.23988 7.64982 7.84942 7.29635C7.68897 7.1511 7.52254 7.03226 7.47958 7.03226C7.43662 7.03226 7.41831 7.01572 7.4389 6.9955C7.50931 6.92635 7.99396 7.21794 8.2097 7.45925C8.48481 7.76697 8.59802 8.03651 8.64753 8.50174C8.73397 9.31398 8.40228 10.0465 7.79256 10.39C7.38748 10.6182 7.21204 10.6458 7.59319 10.4214V10.4214ZM7.90508 10.5397C7.86087 10.522 7.94878 10.4 8.11276 10.2515C8.56249 9.84441 8.6976 9.50427 8.70129 8.76985C8.70411 8.20751 8.6868 8.11879 8.50663 7.77262C8.38176 7.5327 8.20015 7.31023 8.01393 7.16905C7.85171 7.04607 7.77072 6.96498 7.83395 6.98886C7.89718 7.01273 7.99811 7.05171 8.05823 7.07549C8.12094 7.10028 8.15104 7.09248 8.12883 7.05719C8.06682 6.95864 8.48724 7.00032 8.71106 7.11491C8.96673 7.2458 9.31595 7.63223 9.43816 7.91948C9.5773 8.24652 9.62063 8.9011 9.52819 9.27953C9.41221 9.75433 9.1096 10.1662 8.71227 10.39C8.38948 10.5718 8.13843 10.6531 8.34308 10.5096C8.42223 10.454 8.41252 10.4467 8.29371 10.4723C8.19857 10.4927 8.16141 10.4793 8.18953 10.4346C8.21759 10.3901 8.19218 10.3807 8.11855 10.4084C8.05547 10.4322 7.98411 10.4521 7.95997 10.4526C7.93582 10.4531 7.96042 10.4817 8.01461 10.5161C8.11515 10.5799 8.04372 10.5953 7.90508 10.5397ZM8.76745 10.2241C9.15639 9.84213 9.2836 9.52719 9.31402 8.87097C9.34875 8.12177 9.19722 7.68388 8.76912 7.29635C8.60867 7.1511 8.44143 7.03226 8.39747 7.03226C8.35352 7.03226 8.41879 7.10562 8.54253 7.19527C8.81558 7.39312 9.10678 7.80589 9.19611 8.12173C9.29374 8.4669 9.27682 9.09146 9.1593 9.48009C9.08442 9.72772 8.96727 9.90927 8.73542 10.137C8.5592 10.31 8.44219 10.4516 8.4754 10.4516C8.50861 10.4516 8.64003 10.3492 8.76745 10.2241V10.2241ZM8.53212 10.1604C8.80554 9.8546 8.90461 9.65074 8.99949 9.1987C9.14425 8.50903 8.96239 7.81035 8.52376 7.37097C8.37321 7.22017 8.22435 7.09678 8.19297 7.09678C8.16159 7.09678 8.22745 7.17242 8.33932 7.26487C8.80851 7.65259 9.06688 8.45431 8.93996 9.12861C8.85654 9.57178 8.72057 9.83813 8.42104 10.1452C8.29123 10.2782 8.21752 10.3871 8.25724 10.3871C8.29697 10.3871 8.42066 10.2851 8.53212 10.1604V10.1604ZM9.03106 10.2528C9.49069 9.83673 9.623 9.50559 9.6236 8.76985C9.62406 8.21018 9.60565 8.11715 9.42633 7.77262C9.30295 7.53556 9.12189 7.31274 8.94495 7.1802C8.62061 6.93725 8.63421 6.91351 8.99436 7.09395C9.7192 7.45711 10.0739 8.49369 9.79581 9.43614C9.69643 9.77294 9.29197 10.2711 8.99575 10.4215C8.70978 10.5668 8.71575 10.5382 9.03106 10.2528ZM20.8248 15.3994C20.8248 14.8578 20.8497 14.6376 20.9213 14.5446C21.0077 14.4324 21.0179 14.5085 21.0198 15.2742C21.0216 15.992 21.0061 16.129 20.9234 16.129C20.8416 16.129 20.8248 16.005 20.8248 15.3994ZM21.4181 15.0161C21.4197 14.1931 21.443 13.8738 21.5075 13.7903C21.5555 13.7282 21.6137 13.6774 21.6368 13.6774C21.6599 13.6774 21.6788 14.229 21.6788 14.9032C21.6788 16.086 21.6742 16.129 21.5474 16.129C21.4211 16.129 21.4161 16.0867 21.4181 15.0161ZM21.7469 14.7581C21.7487 13.6912 21.77 13.3513 21.8431 13.2258C21.9265 13.0825 21.9372 13.2356 21.9393 14.5968C21.9413 15.9168 21.928 16.129 21.8431 16.129C21.7585 16.129 21.7449 15.9347 21.7469 14.7581ZM22.0316 16.0336C22.0111 15.9812 22.0082 15.1901 22.0251 14.2756C22.0488 12.9963 22.0795 12.546 22.1586 12.3226C22.2559 12.0474 22.2615 12.1391 22.2657 14.0806C22.2695 15.879 22.2578 16.129 22.1695 16.129C22.1141 16.129 22.0521 16.0861 22.0316 16.0336H22.0316ZM22.3358 10.7916V5.4541L22.5244 5.64641C22.6281 5.75218 23.6225 6.82581 24.7341 8.03226C26.7287 10.197 27.5788 11.0968 27.6296 11.0968C27.677 11.0968 28.5973 10.121 30.6111 7.93549C31.7065 6.74678 32.6723 5.70228 32.7575 5.61437L32.9124 5.45455V10.7918V16.129H32.2555H31.5985V12.4194C31.5985 10.379 31.5764 8.71188 31.5493 8.71456C31.5222 8.71725 31.1157 9.14088 30.646 9.65598C30.1763 10.1711 29.3117 11.1197 28.7248 11.764C28.1378 12.4083 27.6408 12.9299 27.6203 12.923C27.5998 12.9161 27.1488 12.4355 26.6181 11.8551C24.4467 9.47994 23.7602 8.74088 23.7063 8.72044C23.6749 8.70853 23.6496 10.3578 23.6496 12.414V16.129H22.9927H22.3358V10.7916ZM30.024 13.3065C30.0256 11.0617 30.0439 10.4608 30.1133 10.371C30.1613 10.3089 30.2195 10.2581 30.2426 10.2581C30.2658 10.2581 30.2847 11.579 30.2847 13.1936C30.2847 16.086 30.2827 16.129 30.1533 16.129C30.0239 16.129 30.0219 16.0867 30.024 13.3065ZM30.3504 13.1097C30.3504 10.1169 30.3624 9.93549 30.5606 9.93549C30.5895 9.93549 30.6131 11.329 30.6131 13.0323C30.6131 16.086 30.6113 16.129 30.4818 16.129C30.3522 16.129 30.3504 16.086 30.3504 13.1097ZM30.6788 12.9478C30.6788 10.2506 30.6935 9.74755 30.7753 9.64137C30.8605 9.53072 30.872 9.90121 30.8738 12.8226C30.8757 15.7196 30.8637 16.129 30.7774 16.129C30.6911 16.129 30.6788 15.7326 30.6788 12.9478ZM30.9416 12.8136C30.9416 9.6115 30.946 9.49296 31.0708 9.34586C31.1996 9.19403 31.2 9.20435 31.2022 12.6613C31.2044 16.0867 31.2028 16.129 31.073 16.129C30.9433 16.129 30.9416 16.086 30.9416 12.8136ZM31.2701 12.6409C31.2701 9.25695 31.2889 8.90323 31.4695 8.90323C31.5094 8.90323 31.5328 10.2384 31.5328 12.5161C31.5328 16.086 31.5313 16.129 31.4015 16.129C31.2717 16.129 31.2701 16.086 31.2701 12.6409ZM13.073 15.871C12.9854 15.8154 12.9854 15.8082 13.073 15.8065C13.1606 15.8047 13.1606 15.7975 13.073 15.7419C12.9418 15.6587 12.8577 15.6608 12.9114 15.7461C12.9951 15.8792 12.1558 15.4174 11.7792 15.1232C10.8836 14.4234 10.2272 13.4848 9.93353 12.4839C9.73152 11.7953 9.7031 11.5696 9.81321 11.5281C9.93262 11.4831 9.98541 11.5358 9.98541 11.7002C9.98541 11.9578 10.2021 12.6864 10.4141 13.1415C10.7101 13.7768 11.0326 14.2374 11.5197 14.7205C11.9436 15.1409 12.6513 15.6615 12.7145 15.5994C12.7341 15.5801 12.6528 15.5073 12.5338 15.4375C11.8572 15.0404 11.0954 14.253 10.6749 13.5161C10.4127 13.0568 10.1463 12.3021 10.0637 11.7854C10.012 11.4615 10.0191 11.4062 10.1189 11.3537C10.2197 11.3008 10.2389 11.3379 10.2785 11.6629C10.3502 12.2497 10.7413 13.3152 11.0659 13.8081C11.4604 14.4069 12.141 15.073 12.7694 15.4752C13.054 15.6574 13.2462 15.8069 13.1964 15.8074C13.1248 15.8082 13.1265 15.8215 13.2044 15.871C13.2586 15.9054 13.2734 15.9335 13.2372 15.9335C13.2011 15.9335 13.1272 15.9054 13.073 15.871V15.871ZM35.3226 15.8848C35.3717 15.8541 35.2478 15.7582 34.9887 15.6263C34.1915 15.2203 32.9781 14.0561 32.9781 13.6971C32.9781 13.6153 32.9887 13.5484 33.0016 13.5484C33.0146 13.5484 33.1286 13.7008 33.255 13.8871C33.74 14.6019 34.427 15.2281 35.1992 15.6594C35.4594 15.8047 35.5207 15.8645 35.4402 15.8948C35.2935 15.9501 35.2271 15.9444 35.3226 15.8848ZM13.2286 15.6548C12.6491 15.348 12.2237 15.0259 11.7721 14.5518C11.0396 13.7828 10.7414 13.2442 10.4709 12.2014C10.2911 11.5084 10.2739 11.2097 10.4078 11.1006C10.4863 11.0366 10.5083 11.0749 10.5421 11.3346C10.6292 12.0043 10.8548 12.8416 11.0623 13.2653C11.5362 14.233 12.4241 15.1438 13.4187 15.6823C13.6079 15.7848 13.7332 15.8685 13.6971 15.8683C13.661 15.8681 13.4501 15.7721 13.2286 15.6548ZM34.4562 15.6652C34.2394 15.5554 33.9586 15.3917 33.8321 15.3014C33.4597 15.0354 32.9781 14.5607 32.9781 14.4596C32.9781 14.4081 33.1776 14.5535 33.4215 14.7828C33.8712 15.2055 34.2793 15.5179 34.3242 15.4737C34.3377 15.4604 34.1543 15.3048 33.9165 15.128C33.4147 14.7547 32.9564 14.2491 32.9886 14.1042C33.0034 14.0376 33.1274 14.143 33.3557 14.4162C33.6424 14.7594 34.2582 15.2708 34.8566 15.6626C34.9718 15.738 34.9687 15.7416 34.8175 15.7083L34.6533 15.672L34.8175 15.7692C35.1093 15.9419 34.8621 15.8707 34.4562 15.6652ZM34.5915 15.5786C34.5213 15.5265 34.4326 15.4848 34.3944 15.4859C34.3561 15.4871 34.3822 15.5306 34.4523 15.5827C34.5225 15.6348 34.6112 15.6765 34.6494 15.6754C34.6877 15.6742 34.6616 15.6307 34.5915 15.5786ZM35.3789 15.6666C34.8438 15.3955 34.3996 15.0612 33.9211 14.5693C33.3606 13.993 32.9776 13.3965 32.9798 13.1029C32.9815 12.8756 32.9865 12.88 33.2277 13.3263C33.3631 13.5768 33.5812 13.9251 33.7123 14.1005C34.0965 14.6143 35.1577 15.5584 35.2496 15.4681C35.2664 15.4517 35.1583 15.3591 35.0096 15.2625C34.6171 15.0074 33.9619 14.3437 33.6331 13.8681C33.1779 13.2099 32.9813 12.6934 32.9835 12.1613L32.9853 11.7097L33.1069 12.1613C33.5213 13.701 34.2598 14.6697 35.7763 15.6626C35.8915 15.738 35.8884 15.7416 35.7372 15.7083L35.573 15.672L35.7372 15.7692C36.0282 15.9414 35.7824 15.871 35.3789 15.6666ZM35.5112 15.5786C35.441 15.5265 35.3523 15.4848 35.3141 15.4859C35.2758 15.4871 35.3019 15.5306 35.372 15.5827C35.4422 15.6348 35.5309 15.6765 35.5691 15.6754C35.6074 15.6742 35.5813 15.6307 35.5112 15.5786ZM25.5192 11.6708C23.9605 9.96926 23.7148 9.68589 23.7182 9.59369C23.7215 9.50275 24.1913 9.98597 25.6498 11.5807C26.7943 12.832 26.832 12.878 26.752 12.9265C26.7228 12.9442 26.1681 12.3792 25.5192 11.6708ZM25.057 11.8253C24.5178 11.2324 23.9953 10.6598 23.896 10.5528C23.7131 10.3559 23.671 10.2581 23.7693 10.2581C23.8241 10.2581 24.184 10.6377 25.4469 12.0274C26.11 12.7572 26.2175 12.9032 26.0917 12.9032C26.0618 12.9032 25.5962 12.4182 25.057 11.8253ZM25.2144 11.6731C24.5887 10.9965 23.9951 10.3387 23.8955 10.2112C23.5923 9.82331 23.772 9.87832 24.1539 10.2903C25.2693 11.4936 26.4445 12.7932 26.4635 12.8443C26.5449 13.0633 26.2089 12.7483 25.2144 11.6731ZM25.9767 11.8236C25.4375 11.2298 24.8301 10.5693 24.627 10.3558C24.0599 9.76005 23.7153 9.35378 23.7153 9.28103C23.7153 9.16925 23.8059 9.24241 24.2062 9.67742C24.4185 9.90807 24.8345 10.3581 25.1307 10.6774C26.2723 11.9081 27.0657 12.799 27.0657 12.85C27.0657 12.9937 26.8818 12.8203 25.9767 11.8236ZM26.1351 11.6644C25.5088 10.9831 24.7081 10.1116 24.3558 9.72765C23.773 9.09247 23.6049 8.85534 23.7793 8.91398C23.8144 8.92581 24.1765 9.30095 24.584 9.74762C24.9914 10.1943 25.783 11.0597 26.3431 11.6708C26.9031 12.2819 27.3712 12.8092 27.3832 12.8425C27.462 13.0609 27.135 12.7523 26.1351 11.6644ZM27.5721 10.9895C27.5499 10.9542 27.6247 10.826 27.7384 10.7046C27.9117 10.5194 32.4796 5.581 32.5674 5.48388C32.5834 5.46613 32.5863 5.51493 32.5738 5.5923C32.5613 5.66968 31.6017 6.75839 30.4412 8.01166C27.5847 11.0967 27.6179 11.0623 27.5721 10.9895H27.5721ZM27.4051 10.7788C27.4452 10.669 32.2031 5.54839 32.265 5.54839C32.3948 5.54839 32.1306 5.85156 29.8613 8.30646C27.8091 10.5265 27.316 11.0229 27.4051 10.7788ZM27.2737 10.5853C27.2905 10.5394 30.27 7.29317 31.7774 5.67842C31.9332 5.51156 31.9896 5.4809 31.9909 5.56244C31.9919 5.62339 30.9562 6.79194 29.6894 8.15921C27.6668 10.3423 27.186 10.8252 27.2737 10.5853ZM27.0362 10.3907C26.9239 10.2689 26.983 10.198 29.1042 7.90685C31.0814 5.77132 31.5317 5.3199 31.344 5.6613C31.3099 5.72339 30.3333 6.7996 29.1738 8.05287C28.0144 9.30614 27.0657 10.344 27.0657 10.3593C27.0657 10.3746 27.0776 10.3871 27.0922 10.3871C27.1156 10.3871 31.3692 5.80839 31.584 5.55193C31.6575 5.46421 31.6658 5.46898 31.6497 5.5899C31.6338 5.7102 27.2942 10.5003 27.1908 10.5118C27.1693 10.5142 27.0997 10.4597 27.0362 10.3907ZM32.9845 9.48388C32.9755 8.32204 34.2372 6.70611 35.7273 5.97112C35.9206 5.87578 36.0888 5.80769 36.1012 5.8198C36.1135 5.83191 35.9665 5.9226 35.7744 6.02134C34.5841 6.63338 33.53 7.96184 33.1472 9.33235L32.9877 9.90323L32.9845 9.48388ZM22.143 9.29033C22.041 8.90642 21.9608 6.16711 22.0394 5.75548C22.0769 5.55904 22.0947 5.54201 22.1772 5.62313C22.2565 5.70094 22.2692 6.03863 22.2546 7.68069C22.2383 9.52671 22.2315 9.62377 22.143 9.29033ZM11.365 8.79456C11.365 8.02736 12.6583 6.59476 13.909 5.97655C14.5011 5.68384 14.6257 5.67062 14.0826 5.95812C12.9703 6.54696 11.9942 7.57936 11.573 8.61237C11.3737 9.10125 11.365 9.10887 11.365 8.79456ZM32.9811 8.55707C32.9751 8.05809 33.9805 6.85036 34.8827 6.27296C35.1172 6.12283 35.2782 6.00001 35.2404 6.00001C34.9463 6.00001 33.8005 7.00524 33.2984 7.70367C33.0286 8.07908 32.9781 8.12319 32.9781 7.98366C32.9781 7.6773 34.0104 6.59241 34.6548 6.22155C34.8198 6.12656 34.9392 6.03345 34.92 6.01464C34.8421 5.93808 34.0921 6.50399 33.5529 7.04626C33.2091 7.39201 32.9781 7.58124 32.9781 7.51707C32.9781 7.37085 33.6348 6.70544 34.069 6.41181C34.2639 6.27996 34.4107 6.1596 34.3951 6.14434C34.3461 6.09621 33.7488 6.53026 33.3759 6.88493C33.1788 7.07241 33.0087 7.22581 32.9978 7.22581C32.987 7.22581 32.9781 7.1829 32.9781 7.13046C32.9781 6.93427 34.3078 5.98353 34.7847 5.83876C34.8569 5.81683 34.8024 5.86075 34.6635 5.93636C34.2952 6.13687 34.4173 6.1669 34.8088 5.97208C35.1605 5.79706 35.3591 5.74668 35.0803 5.90323C34.8876 6.01143 34.9341 6.02685 35.1783 5.93568C35.2928 5.89293 35.337 5.89293 35.3101 5.93568C35.2588 6.01717 35.3459 6.01706 35.4745 5.93549C35.562 5.8799 35.562 5.87262 35.4745 5.87C35.3937 5.86758 35.3956 5.85575 35.4852 5.80439C35.5454 5.76993 35.6423 5.75972 35.7006 5.7817C35.7778 5.81079 35.6971 5.88526 35.404 6.05555C34.4814 6.59155 33.5849 7.53916 33.1676 8.41936L32.9841 8.80646L32.9811 8.55707H32.9811ZM21.8266 8.4292C21.769 8.30487 21.7445 7.8349 21.7445 6.85411C21.7445 5.60367 21.7551 5.46656 21.8443 5.55424C21.9289 5.63728 21.9414 5.878 21.9265 7.12933C21.9116 8.372 21.8957 8.57828 21.8266 8.4292ZM11.3688 8.11713C11.3636 7.88461 12.0177 7.08039 12.5873 6.61901C12.8271 6.42472 13.2236 6.16241 13.4684 6.03611C13.9947 5.7645 14.1757 5.72749 13.6892 5.99095C13.2852 6.20974 12.6582 6.67988 12.3736 6.97744C12.1774 7.18251 11.6193 7.90223 11.451 8.16715C11.3785 8.28114 11.3724 8.27741 11.3688 8.11713ZM21.5294 7.86378C21.427 7.71565 21.4151 7.55987 21.4309 6.57346C21.4485 5.47631 21.4515 5.45533 21.5655 5.6201C21.6679 5.76824 21.6798 5.92401 21.664 6.91042C21.6464 8.00757 21.6434 8.02856 21.5294 7.86378ZM11.2708 7.81344C11.1802 7.66945 12.0089 6.76172 12.5549 6.40683C12.6968 6.31463 12.7989 6.22545 12.7818 6.20865C12.7188 6.14673 12.0761 6.66906 11.6288 7.14589C11.2966 7.49986 11.1679 7.60169 11.1679 7.51037C11.1679 7.38151 11.8586 6.67974 12.285 6.37543C12.524 6.20487 13.4255 5.7412 13.5148 5.74293C13.5428 5.74344 13.5214 5.77206 13.4672 5.80646C13.3796 5.86205 13.3796 5.86924 13.4672 5.87121C13.5214 5.87243 13.4179 5.96417 13.2372 6.07509C12.5104 6.52131 11.9401 7.04962 11.4099 7.76784C11.345 7.85572 11.3056 7.86865 11.2708 7.81344ZM13.1484 6.03304C13.3057 5.94476 13.411 5.87218 13.3824 5.87175C13.3101 5.87067 12.8102 6.12475 12.8102 6.16261C12.8102 6.21525 12.8531 6.19881 13.1484 6.03304ZM21.219 7.45202C21.1125 7.326 21.0373 6.01197 21.1185 5.69438C21.1558 5.5482 21.1725 5.53965 21.2575 5.62312C21.3354 5.69958 21.3506 5.89747 21.3358 6.64329C21.3194 7.47597 21.3077 7.55692 21.219 7.45202ZM11.0365 7.23924C11.0365 7.07523 12.054 6.27718 12.6225 5.99538C13.1085 5.75443 13.212 5.75131 12.7695 5.99096C12.3245 6.23193 11.7136 6.69751 11.4117 7.02569C11.1837 7.27346 11.0365 7.35728 11.0365 7.23924ZM20.9048 7.08168C20.8442 7.00975 20.8257 6.76712 20.8391 6.21666C20.8551 5.55638 20.8692 5.47146 20.9419 5.59649C21.0629 5.80442 21.0273 7.22704 20.9048 7.08168Z" fill="#503E9D"/>
</svg>
